<svg xmlns="http://www.w3.org/2000/svg" width="1400" height="1100" font-family="Consolas, Monaco, monospace" font-size="12">
<rect width="1400" height="1100" fill="#1a1a2e"/>
<text x="700" y="35" text-anchor="middle" font-size="20" font-weight="bold" fill="#e0e0e0">AIOS System Memory Map</text>
<text x="20" y="80" font-size="16" font-weight="bold" fill="#96CEB4">Memory Regions (14)</text>
<text x="30" y="109" fill="#FFD93D" font-size="11">uart_mmio                       0x1000  (4 KiB) @ 0x9000000</text>
<text x="30" y="129" fill="#a0a0c0" font-size="11">rx_buf                          0x1000  (4 KiB)</text>
<text x="30" y="149" fill="#a0a0c0" font-size="11">tx_buf                          0x1000  (4 KiB)</text>
<text x="30" y="169" fill="#FFD93D" font-size="11">blk_mmio                        0x1000  (4 KiB) @ 0x0a003000</text>
<text x="30" y="189" fill="#FFD93D" font-size="11">blk_dma                        0x10000  (64 KiB) @ 0xB0000000</text>
<text x="30" y="209" fill="#a0a0c0" font-size="11">blk_data                       0x10000  (64 KiB)</text>
<text x="30" y="229" fill="#a0a0c0" font-size="11">fs_data                        0x10000  (64 KiB)</text>
<text x="30" y="249" fill="#a0a0c0" font-size="11">auth_io                         0x1000  (4 KiB)</text>
<text x="30" y="269" fill="#a0a0c0" font-size="11">auth_store                     0x10000  (64 KiB)</text>
<text x="30" y="289" fill="#FFD93D" font-size="11">net_dma                        0x20000  (128 KiB) @ 0xB0100000</text>
<text x="30" y="309" fill="#a0a0c0" font-size="11">net_data                       0x10000  (64 KiB)</text>
<text x="30" y="329" fill="#a0a0c0" font-size="11">sock_data                      0x10000  (64 KiB)</text>
<text x="30" y="349" fill="#a0a0c0" font-size="11">sandbox_io                      0x1000  (4 KiB)</text>
<text x="30" y="369" fill="#a0a0c0" font-size="11">sandbox_mem                 0x20000000  (512 MiB)</text>
<rect x="20" y="405" width="320" height="256" rx="8" fill="rgb(57,71,65)" stroke="#96CEB4" stroke-width="2"/>
<text x="30" y="427" font-size="14" font-weight="bold" fill="#96CEB4">orchestrator</text>
<text x="330" y="427" text-anchor="end" font-size="11" fill="#808080">prio 200</text>
<rect x="28" y="447" width="20" height="22" rx="3" fill="#4ECDC4" opacity="0.4"/>
<text x="32" y="461" font-size="10" fill="#e0e0e0">rx_buf</text>
<text x="330" y="461" text-anchor="end" font-size="10" fill="#a0a0a0">0x04200000 rw 4K</text>
<rect x="28" y="475" width="20" height="22" rx="3" fill="#4ECDC4" opacity="0.4"/>
<text x="32" y="489" font-size="10" fill="#e0e0e0">tx_buf</text>
<text x="330" y="489" text-anchor="end" font-size="10" fill="#a0a0a0">0x04201000 rw 4K</text>
<rect x="28" y="503" width="20" height="22" rx="3" fill="#4ECDC4" opacity="0.4"/>
<text x="32" y="517" font-size="10" fill="#e0e0e0">fs_data</text>
<text x="330" y="517" text-anchor="end" font-size="10" fill="#a0a0a0">0x06100000 rw 64K</text>
<rect x="28" y="531" width="20" height="22" rx="3" fill="#4ECDC4" opacity="0.4"/>
<text x="32" y="545" font-size="10" fill="#e0e0e0">sock_data</text>
<text x="330" y="545" text-anchor="end" font-size="10" fill="#a0a0a0">0x05700000 rw 64K</text>
<rect x="28" y="559" width="20" height="22" rx="3" fill="#4ECDC4" opacity="0.4"/>
<text x="32" y="573" font-size="10" fill="#e0e0e0">auth_io</text>
<text x="330" y="573" text-anchor="end" font-size="10" fill="#a0a0a0">0x06200000 rw 4K</text>
<rect x="28" y="587" width="20" height="22" rx="3" fill="#4ECDC4" opacity="0.4"/>
<text x="32" y="601" font-size="10" fill="#e0e0e0">sandbox_io</text>
<text x="330" y="601" text-anchor="end" font-size="10" fill="#a0a0a0">0x30000000 rw 4K</text>
<rect x="28" y="615" width="190" height="22" rx="3" fill="#4ECDC4" opacity="0.4"/>
<text x="32" y="629" font-size="10" fill="#e0e0e0">sandbox_mem</text>
<text x="330" y="629" text-anchor="end" font-size="10" fill="#a0a0a0">0x30001000 rw 512M</text>
<rect x="360" y="405" width="320" height="144" rx="8" fill="rgb(83,46,46)" stroke="#FF6B6B" stroke-width="2"/>
<text x="370" y="427" font-size="14" font-weight="bold" fill="#FF6B6B">serial_driver</text>
<text x="670" y="427" text-anchor="end" font-size="11" fill="#808080">prio 254</text>
<rect x="368" y="447" width="20" height="22" rx="3" fill="#4ECDC4" opacity="0.4"/>
<text x="372" y="461" font-size="10" fill="#e0e0e0">uart_mmio</text>
<text x="670" y="461" text-anchor="end" font-size="10" fill="#a0a0a0">0x04000000 rw 4K</text>
<rect x="368" y="475" width="20" height="22" rx="3" fill="#4ECDC4" opacity="0.4"/>
<text x="372" y="489" font-size="10" fill="#e0e0e0">rx_buf</text>
<text x="670" y="489" text-anchor="end" font-size="10" fill="#a0a0a0">0x04200000 rw 4K</text>
<rect x="368" y="503" width="20" height="22" rx="3" fill="#4ECDC4" opacity="0.4"/>
<text x="372" y="517" font-size="10" fill="#e0e0e0">tx_buf</text>
<text x="670" y="517" text-anchor="end" font-size="10" fill="#a0a0a0">0x04201000 rw 4K</text>
<rect x="700" y="405" width="320" height="144" rx="8" fill="rgb(39,71,69)" stroke="#4ECDC4" stroke-width="2"/>
<text x="710" y="427" font-size="14" font-weight="bold" fill="#4ECDC4">blk_driver</text>
<text x="1010" y="427" text-anchor="end" font-size="11" fill="#808080">prio 250</text>
<rect x="708" y="447" width="20" height="22" rx="3" fill="#4ECDC4" opacity="0.4"/>
<text x="712" y="461" font-size="10" fill="#e0e0e0">blk_mmio</text>
<text x="1010" y="461" text-anchor="end" font-size="10" fill="#a0a0a0">0x05000000 rw 4K</text>
<rect x="708" y="475" width="20" height="22" rx="3" fill="#4ECDC4" opacity="0.4"/>
<text x="712" y="489" font-size="10" fill="#e0e0e0">blk_dma</text>
<text x="1010" y="489" text-anchor="end" font-size="10" fill="#a0a0a0">0x05100000 rw 64K</text>
<rect x="708" y="503" width="20" height="22" rx="3" fill="#4ECDC4" opacity="0.4"/>
<text x="712" y="517" font-size="10" fill="#e0e0e0">blk_data</text>
<text x="1010" y="517" text-anchor="end" font-size="10" fill="#a0a0a0">0x05200000 rw 64K</text>
<rect x="1040" y="405" width="320" height="116" rx="8" fill="rgb(37,65,72)" stroke="#45B7D1" stroke-width="2"/>
<text x="1050" y="427" font-size="14" font-weight="bold" fill="#45B7D1">fs_server</text>
<text x="1350" y="427" text-anchor="end" font-size="11" fill="#808080">prio 240</text>
<rect x="1048" y="447" width="20" height="22" rx="3" fill="#4ECDC4" opacity="0.4"/>
<text x="1052" y="461" font-size="10" fill="#e0e0e0">blk_data</text>
<text x="1350" y="461" text-anchor="end" font-size="10" fill="#a0a0a0">0x06000000 rw 64K</text>
<rect x="1048" y="475" width="20" height="22" rx="3" fill="#4ECDC4" opacity="0.4"/>
<text x="1052" y="489" font-size="10" fill="#e0e0e0">fs_data</text>
<text x="1350" y="489" text-anchor="end" font-size="10" fill="#a0a0a0">0x06100000 rw 64K</text>
<rect x="20" y="681" width="320" height="144" rx="8" fill="rgb(33,58,74)" stroke="#3498DB" stroke-width="2"/>
<text x="30" y="703" font-size="14" font-weight="bold" fill="#3498DB">net_driver</text>
<text x="330" y="703" text-anchor="end" font-size="11" fill="#808080">prio 230</text>
<rect x="28" y="723" width="20" height="22" rx="3" fill="#4ECDC4" opacity="0.4"/>
<text x="32" y="737" font-size="10" fill="#e0e0e0">blk_mmio</text>
<text x="330" y="737" text-anchor="end" font-size="10" fill="#a0a0a0">0x05200000 rw 4K</text>
<rect x="28" y="751" width="20" height="22" rx="3" fill="#4ECDC4" opacity="0.4"/>
<text x="32" y="765" font-size="10" fill="#e0e0e0">net_dma</text>
<text x="330" y="765" text-anchor="end" font-size="10" fill="#a0a0a0">0x05300000 rw 128K</text>
<rect x="28" y="779" width="20" height="22" rx="3" fill="#4ECDC4" opacity="0.4"/>
<text x="32" y="793" font-size="10" fill="#e0e0e0">net_data</text>
<text x="330" y="793" text-anchor="end" font-size="10" fill="#a0a0a0">0x05500000 rw 64K</text>
<rect x="360" y="681" width="320" height="116" rx="8" fill="rgb(80,59,24)" stroke="#F39C12" stroke-width="2"/>
<text x="370" y="703" font-size="14" font-weight="bold" fill="#F39C12">auth_server</text>
<text x="670" y="703" text-anchor="end" font-size="11" fill="#808080">prio 210</text>
<rect x="368" y="723" width="20" height="22" rx="3" fill="#4ECDC4" opacity="0.4"/>
<text x="372" y="737" font-size="10" fill="#e0e0e0">auth_io</text>
<text x="670" y="737" text-anchor="end" font-size="10" fill="#a0a0a0">0x30000000 rw 4K</text>
<rect x="368" y="751" width="20" height="22" rx="3" fill="#4ECDC4" opacity="0.4"/>
<text x="372" y="765" font-size="10" fill="#e0e0e0">auth_store</text>
<text x="670" y="765" text-anchor="end" font-size="10" fill="#a0a0a0">0x30100000 rw 64K</text>
<rect x="700" y="681" width="320" height="116" rx="8" fill="rgb(31,71,48)" stroke="#2ECC71" stroke-width="2"/>
<text x="710" y="703" font-size="14" font-weight="bold" fill="#2ECC71">net_server</text>
<text x="1010" y="703" text-anchor="end" font-size="11" fill="#808080">prio 210</text>
<rect x="708" y="723" width="20" height="22" rx="3" fill="#4ECDC4" opacity="0.4"/>
<text x="712" y="737" font-size="10" fill="#e0e0e0">net_data</text>
<text x="1010" y="737" text-anchor="end" font-size="10" fill="#a0a0a0">0x05500000 rw 64K</text>
<rect x="708" y="751" width="20" height="22" rx="3" fill="#4ECDC4" opacity="0.4"/>
<text x="712" y="765" font-size="10" fill="#e0e0e0">sock_data</text>
<text x="1010" y="765" text-anchor="end" font-size="10" fill="#a0a0a0">0x05600000 rw 64K</text>
<rect x="1040" y="681" width="320" height="116" rx="8" fill="rgb(68,68,68)" stroke="#C0C0C0" stroke-width="2"/>
<text x="1050" y="703" font-size="14" font-weight="bold" fill="#C0C0C0">sandbox</text>
<text x="1350" y="703" text-anchor="end" font-size="11" fill="#808080">prio 150</text>
<rect x="1048" y="723" width="20" height="22" rx="3" fill="#4ECDC4" opacity="0.4"/>
<text x="1052" y="737" font-size="10" fill="#e0e0e0">sandbox_io</text>
<text x="1350" y="737" text-anchor="end" font-size="10" fill="#a0a0a0">0x20000000 rw 4K</text>
<rect x="1048" y="751" width="190" height="22" rx="3" fill="#FF6B6B" opacity="0.4"/>
<text x="1052" y="765" font-size="10" fill="#e0e0e0">sandbox_mem</text>
<text x="1350" y="765" text-anchor="end" font-size="10" fill="#a0a0a0">0x20001000 rwx 512M</text>
<text x="20" y="865" font-size="16" font-weight="bold" fill="#96CEB4">Channels (6)</text>
<text x="30" y="894" fill="#a0a0c0" font-size="11">CH  1: serial_driver        ↔ orchestrator        </text>
<text x="30" y="914" fill="#a0a0c0" font-size="11">CH  2: orchestrator         ↔ blk_driver          </text>
<text x="30" y="934" fill="#a0a0c0" font-size="11">CH  4: orchestrator         ↔ fs_server            (PPC)</text>
<text x="30" y="954" fill="#a0a0c0" font-size="11">CH 11: orchestrator         ↔ auth_server          (PPC)</text>
<text x="30" y="974" fill="#a0a0c0" font-size="11">CH 12: orchestrator         ↔ net_server           (PPC)</text>
<text x="30" y="994" fill="#a0a0c0" font-size="11">CH  7: orchestrator         ↔ sandbox              (PPC)</text>
</svg>